<svg id="Слой_1" data-name="Слой 1" xmlns="http://www.w3.org/2000/svg" viewBox="0 0 71.25 72.875"><defs><style>.cls-1{fill:#1d1d1b;}</style></defs><title>Ico</title><path class="cls-1" d="M34.98438,34.46436a5.667,5.667,0,1,1,5.666-5.667A5.67314,5.67314,0,0,1,34.98438,34.46436Zm0-9.834a4.167,4.167,0,1,0,4.166,4.167A4.1715,4.1715,0,0,0,34.98438,24.63037Z"/><path class="cls-1" d="M46.84277,49.74414H23.125a.75019.75019,0,0,1-.75-.75,12.60889,12.60889,0,0,1,25.21777,0A.75019.75019,0,0,1,46.84277,49.74414Zm-22.94238-1.5h22.167a11.10887,11.10887,0,0,0-22.167,0Z"/><path class="cls-1" d="M13.69336,45.34863H5.01074a.75019.75019,0,0,1-.75-.75V37.40332a32.91648,32.91648,0,0,1,1.91992-11.1001V26.27a.7494.7494,0,0,1,.18555-.4707C10.85156,13.87744,22.0127,5.26709,35.03809,5.02881A31.36506,31.36506,0,0,1,66.98926,36.3877a.75.75,0,0,1-1.5,0A29.86442,29.86442,0,0,0,35.06543,6.52881C22.915,6.751,12.46777,14.6377,8.03223,25.64941a7.68173,7.68173,0,0,1,6.41113,7.61279V44.59863A.75019.75019,0,0,1,13.69336,45.34863Zm-7.93262-1.5h7.18262V33.26221a6.19039,6.19039,0,0,0-5.44922-6.17578,31.42893,31.42893,0,0,0-1.7334,10.31689Z"/><path class="cls-1" d="M65.15234,45.34863H57.8916a.75019.75019,0,0,1-.75-.75V33.26221A7.68633,7.68633,0,0,1,64.63281,25.543a.71492.71492,0,0,1,.77246.72705.75043.75043,0,0,1-.72754.772,6.19408,6.19408,0,0,0-6.03613,6.22021V43.84863h6.51074a.75.75,0,0,1,0,1.5Z"/><path class="cls-1" d="M35.625,67.85156H29.3457a.75019.75019,0,0,1-.75-.75V64.99414a4.84084,4.84084,0,0,1,4.83594-4.83594h5.78711a4.84063,4.84063,0,0,1,4.835,4.83594v.14648A29.9187,29.9187,0,0,0,65.48926,36.4873a.75.75,0,0,1,1.5,0A31.40025,31.40025,0,0,1,35.625,67.85156Zm-5.5293-1.5H35.625A29.8473,29.8473,0,0,0,42.55371,65.54v-.5459a3.339,3.339,0,0,0-3.335-3.33594H33.43164a3.3392,3.3392,0,0,0-3.33594,3.33594Z"/></svg>