<svg id="Слой_1" data-name="Слой 1" xmlns="http://www.w3.org/2000/svg" viewBox="0 0 71.25 72.875"><defs><style>.cls-1{fill:#1d1d1b;}</style></defs><title>Ico</title><path class="cls-1" d="M34.93555,67.05566c-5.57617,0-9.94336-2.26562-9.94336-5.15723a.75.75,0,0,1,1.5,0c0,1.72949,3.46777,3.65723,8.44336,3.65723s8.44336-1.92773,8.44336-3.65723V56.25586a.75.75,0,0,1,1.5,0v5.64258C44.87891,64.79,40.51172,67.05566,34.93555,67.05566Z"/><path class="cls-1" d="M34.92871,61.41309c-5.57617,0-9.94336-2.26562-9.94336-5.15723s4.36719-5.15625,9.94336-5.15625S44.873,53.36426,44.873,56.25586,40.50488,61.41309,34.92871,61.41309Zm0-8.81348c-4.97559,0-8.44336,1.92676-8.44336,3.65625s3.46777,3.65723,8.44336,3.65723c4.97656,0,8.44434-1.92773,8.44434-3.65723S39.90527,52.59961,34.92871,52.59961Z"/><path class="cls-1" d="M16.54883,67.05566c-5.57617,0-9.94434-2.26562-9.94434-5.15723V45.46582a.75.75,0,0,1,1.5,0V61.89844c0,1.72949,3.46777,3.65723,8.44434,3.65723,4.97559,0,8.44336-1.92773,8.44336-3.65723V45.46582a.75.75,0,0,1,1.5,0V61.89844C26.49219,64.79,22.125,67.05566,16.54883,67.05566Z"/><path class="cls-1" d="M16.54883,61.625c-5.57617,0-9.94434-2.26562-9.94434-5.15723a.75.75,0,0,1,1.5,0c0,1.72949,3.46777,3.65723,8.44434,3.65723,4.97559,0,8.44336-1.92773,8.44336-3.65723a.75.75,0,0,1,1.5,0C26.49219,59.35938,22.125,61.625,16.54883,61.625Z"/><path class="cls-1" d="M16.54883,56.3877c-5.57617,0-9.94434-2.26562-9.94434-5.15723a.75.75,0,0,1,1.5,0c0,1.72949,3.46777,3.65723,8.44434,3.65723,4.97559,0,8.44336-1.92773,8.44336-3.65723a.75.75,0,0,1,1.5,0C26.49219,54.12207,22.125,56.3877,16.54883,56.3877Z"/><path class="cls-1" d="M16.54883,50.623c-5.57617,0-9.94434-2.26562-9.94434-5.15723s4.36816-5.15625,9.94434-5.15625,9.94336,2.26465,9.94336,5.15625S22.125,50.623,16.54883,50.623Zm0-8.81348c-4.97656,0-8.44434,1.92676-8.44434,3.65625S11.57227,49.123,16.54883,49.123c4.97559,0,8.44336-1.92773,8.44336-3.65723S21.52441,41.80957,16.54883,41.80957Z"/><path class="cls-1" d="M65.63672,56.3877H47.73828a.75.75,0,0,1,0-1.5H64.88672v-48.77H8.04785V36.41016a.75.75,0,0,1-1.5,0V5.36768a.75019.75019,0,0,1,.75-.75H65.63672a.75019.75019,0,0,1,.75.75v50.27A.75019.75019,0,0,1,65.63672,56.3877Z"/><path class="cls-1" d="M65.63672,15.23633H7.29785a.75.75,0,0,1,0-1.5H65.63672a.75.75,0,0,1,0,1.5Z"/><path class="cls-1" d="M44.66016,37.44141H39.02832a.75019.75019,0,0,1-.75-.75V30.23779a.75019.75019,0,0,1,.75-.75h5.63184a.75019.75019,0,0,1,.75.75v6.45361A.75019.75019,0,0,1,44.66016,37.44141Zm-4.88184-1.5h4.13184V30.98779H39.77832Z"/><path class="cls-1" d="M32.2627,37.44141H26.62988a.75019.75019,0,0,1-.75-.75V30.23779a.75019.75019,0,0,1,.75-.75H32.2627a.75019.75019,0,0,1,.75.75v6.45361A.75019.75019,0,0,1,32.2627,37.44141Zm-4.88281-1.5H31.5127V30.98779H27.37988Z"/><path class="cls-1" d="M57.47363,37.44141H51.84082a.75019.75019,0,0,1-.75-.75V30.23779a.75019.75019,0,0,1,.75-.75h5.63281a.75019.75019,0,0,1,.75.75v6.45361A.75019.75019,0,0,1,57.47363,37.44141Zm-4.88281-1.5h4.13281V30.98779H52.59082Z"/><path class="cls-1" d="M44.66016,48.9873H39.02832a.75019.75019,0,0,1-.75-.75V41.78418a.75019.75019,0,0,1,.75-.75h5.63184a.75019.75019,0,0,1,.75.75V48.2373A.75019.75019,0,0,1,44.66016,48.9873Zm-4.88184-1.5h4.13184V42.53418H39.77832Z"/><path class="cls-1" d="M57.47363,48.9873H51.84082a.75019.75019,0,0,1-.75-.75V41.78418a.75019.75019,0,0,1,.75-.75h5.63281a.75019.75019,0,0,1,.75.75V48.2373A.75019.75019,0,0,1,57.47363,48.9873Zm-4.88281-1.5h4.13281V42.53418H52.59082Z"/><path class="cls-1" d="M19.4502,27.0332H13.81836a.75019.75019,0,0,1-.75-.75V19.8291a.75019.75019,0,0,1,.75-.75H19.4502a.75019.75019,0,0,1,.75.75v6.4541A.75019.75019,0,0,1,19.4502,27.0332Zm-4.88184-1.5H18.7002V20.5791H14.56836Z"/><path class="cls-1" d="M32.2627,27.0332H26.63086a.75019.75019,0,0,1-.75-.75V19.8291a.75019.75019,0,0,1,.75-.75H32.2627a.75019.75019,0,0,1,.75.75v6.4541A.75019.75019,0,0,1,32.2627,27.0332Zm-4.88184-1.5H31.5127V20.5791H27.38086Z"/><path class="cls-1" d="M44.66016,27.0332H39.02832a.75019.75019,0,0,1-.75-.75V19.8291a.75019.75019,0,0,1,.75-.75h5.63184a.75019.75019,0,0,1,.75.75v6.4541A.75019.75019,0,0,1,44.66016,27.0332Zm-4.88184-1.5h4.13184V20.5791H39.77832Z"/><path class="cls-1" d="M57.47363,27.0332H51.84082a.75019.75019,0,0,1-.75-.75V19.8291a.75019.75019,0,0,1,.75-.75h5.63281a.75019.75019,0,0,1,.75.75v6.4541A.75019.75019,0,0,1,57.47363,27.0332Zm-4.88281-1.5h4.13281V20.5791H52.59082Z"/></svg>