<svg id="Слой_1" data-name="Слой 1" xmlns="http://www.w3.org/2000/svg" viewBox="0 0 71.25 72.875"><defs><style>.cls-1{fill:#1d1d1b;}</style></defs><title>Ico</title><path class="cls-1" d="M32.15332,67.917H9.89453A4.001,4.001,0,0,1,5.89844,63.9209V22.53271a4.00062,4.00062,0,0,1,3.99609-3.99561H27.7998a.75.75,0,0,1,0,1.5H9.89453a2.499,2.499,0,0,0-2.49609,2.49561V63.9209A2.4994,2.4994,0,0,0,9.89453,66.417H32.15332a2.49857,2.49857,0,0,0,2.49512-2.49609V53.3877a.75.75,0,0,1,1.5,0V63.9209A4.00021,4.00021,0,0,1,32.15332,67.917Z"/><path class="cls-1" d="M55.2002,52.30273H32.94238a4.00021,4.00021,0,0,1-3.99609-3.99512V6.91895a4.00062,4.00062,0,0,1,3.99609-3.99561H55.2002a4.00062,4.00062,0,0,1,3.99609,3.99561v3.28369a.75.75,0,1,1-1.5,0V6.91895A2.499,2.499,0,0,0,55.2002,4.42334H32.94238a2.499,2.499,0,0,0-2.49609,2.49561V48.30762a2.49857,2.49857,0,0,0,2.49609,2.49512H55.2002a2.49857,2.49857,0,0,0,2.49609-2.49512V17.80225a.75.75,0,1,1,1.5,0V48.30762A4.00021,4.00021,0,0,1,55.2002,52.30273Z"/><path class="cls-1" d="M51.19629,21.76074A.74674.74674,0,0,1,50.666,21.541l-7.125-7.125a.74992.74992,0,1,1,1.06055-1.06055l6.59473,6.59473L68.00391,3.14307a.74992.74992,0,0,1,1.06055,1.06055L51.72656,21.541A.74674.74674,0,0,1,51.19629,21.76074Z"/><path class="cls-1" d="M54.00684,28.36328H33.81152a.75.75,0,0,1,0-1.5H54.00684a.75.75,0,0,1,0,1.5Z"/><path class="cls-1" d="M54.00684,32.876H33.81152a.75.75,0,0,1,0-1.5H54.00684a.75.75,0,1,1,0,1.5Z"/><path class="cls-1" d="M54.00684,37.38867H33.81152a.75.75,0,0,1,0-1.5H54.00684a.75.75,0,0,1,0,1.5Z"/><path class="cls-1" d="M54.00684,41.90039H33.81152a.75.75,0,0,1,0-1.5H54.00684a.75.75,0,0,1,0,1.5Z"/><path class="cls-1" d="M54.00684,46.41309H33.81152a.75.75,0,0,1,0-1.5H54.00684a.75.75,0,0,1,0,1.5Z"/><path class="cls-1" d="M22.25684,45.50879H10.92578a.75.75,0,0,1,0-1.5H22.25684a.75.75,0,1,1,0,1.5Z"/><path class="cls-1" d="M22.25684,50.02148H10.92578a.75.75,0,0,1,0-1.5H22.25684a.75.75,0,0,1,0,1.5Z"/><path class="cls-1" d="M22.25684,26.10693H10.92578a.75.75,0,1,1,0-1.5H22.25684a.75.75,0,0,1,0,1.5Z"/><path class="cls-1" d="M22.25684,30.61963H10.92578a.75.75,0,0,1,0-1.5H22.25684a.75.75,0,0,1,0,1.5Z"/><path class="cls-1" d="M31.12207,54.5332H10.92578a.75.75,0,1,1,0-1.5H31.12207a.75.75,0,1,1,0,1.5Z"/><path class="cls-1" d="M31.12207,59.0459H10.92578a.75.75,0,0,1,0-1.5H31.12207a.75.75,0,0,1,0,1.5Z"/><path class="cls-1" d="M31.12207,63.55859H10.92578a.75.75,0,0,1,0-1.5H31.12207a.75.75,0,0,1,0,1.5Z"/></svg>