<svg id="Слой_1" data-name="Слой 1" xmlns="http://www.w3.org/2000/svg" viewBox="0 0 71.25 72.875"><defs><style>.cls-1{fill:#1d1d1b;}</style></defs><title>Ico</title><path class="cls-1" d="M19.90625,32.30322a3.69263,3.69263,0,1,1,3.69238-3.69238A3.69638,3.69638,0,0,1,19.90625,32.30322Zm0-5.88525a2.19263,2.19263,0,1,0,2.19238,2.19287A2.19515,2.19515,0,0,0,19.90625,26.418Z"/><path class="cls-1" d="M27.00293,41.44727H12.80957a.75019.75019,0,0,1-.75-.75,7.84668,7.84668,0,0,1,15.69336,0A.75019.75019,0,0,1,27.00293,41.44727Zm-13.39941-1.5H26.209a6.34727,6.34727,0,0,0-12.60547,0Z"/><path class="cls-1" d="M49.31934,32.30322a3.69263,3.69263,0,1,1,3.69238-3.69238A3.69638,3.69638,0,0,1,49.31934,32.30322Zm0-5.88525a2.19263,2.19263,0,1,0,2.19238,2.19287A2.19515,2.19515,0,0,0,49.31934,26.418Z"/><path class="cls-1" d="M56.416,41.44727H42.22266a.75019.75019,0,0,1-.75-.75,7.84668,7.84668,0,0,1,15.69336,0A.75019.75019,0,0,1,56.416,41.44727Zm-13.39941-1.5H55.62207a6.34727,6.34727,0,0,0-12.60547,0Z"/><path class="cls-1" d="M56.416,48.3252H12.80957a.75.75,0,1,1,0-1.5H56.416a.75.75,0,0,1,0,1.5Z"/><path class="cls-1" d="M56.416,53.2207H12.80957a.75.75,0,0,1,0-1.5H56.416a.75.75,0,0,1,0,1.5Z"/><path class="cls-1" d="M56.416,58.11523H12.80957a.75.75,0,0,1,0-1.5H56.416a.75.75,0,0,1,0,1.5Z"/><path class="cls-1" d="M11.8252,12.48438H9.48535a.75.75,0,1,1,0-1.5H11.8252a.75.75,0,0,1,0,1.5Z"/><path class="cls-1" d="M16.96387,12.48438H14.624a.75.75,0,0,1,0-1.5h2.33984a.75.75,0,0,1,0,1.5Z"/><path class="cls-1" d="M22.24512,12.48438H19.90625a.75.75,0,0,1,0-1.5h2.33887a.75.75,0,1,1,0,1.5Z"/><path class="cls-1" d="M59.39355,67.31934H11.85645a7.12185,7.12185,0,0,1-7.11328-7.11328V12.66943a7.12206,7.12206,0,0,1,7.11328-7.11426H59.39355a7.12206,7.12206,0,0,1,7.11328,7.11426V60.20605A7.12185,7.12185,0,0,1,59.39355,67.31934ZM11.85645,7.05518a5.62042,5.62042,0,0,0-5.61328,5.61426V60.20605a5.62021,5.62021,0,0,0,5.61328,5.61328H59.39355a5.62021,5.62021,0,0,0,5.61328-5.61328V12.66943a5.62042,5.62042,0,0,0-5.61328-5.61426Z"/><path class="cls-1" d="M65.75684,17.207H5.49316a.75.75,0,1,1,0-1.5H65.75684a.75.75,0,0,1,0,1.5Z"/></svg>