<?xml version="1.0" encoding="utf-8"?>
<!-- Generator: Adobe Illustrator 19.0.0, SVG Export Plug-In . SVG Version: 6.00 Build 0)  -->
<svg version="1.1" id="Слой_1" xmlns="http://www.w3.org/2000/svg" xmlns:xlink="http://www.w3.org/1999/xlink" x="0px" y="0px"
	 viewBox="-285.3 388 12 18" style="enable-background:new -285.3 388 12 18;" xml:space="preserve">
<style type="text/css">
	.st0{fill:#1D1D1B;}
</style>
<title>Ico</title>
<g>
	<path class="st0" d="M-279.3,405.8L-279.3,405.8c-0.2,0-0.3-0.1-0.4-0.2c-0.2-0.3-5.6-7-5.6-11.4c0-3.3,2.7-6,6-6c3.3,0,6,2.7,6,6
		c0,4.9-5.3,11.2-5.6,11.5C-279,405.7-279.1,405.8-279.3,405.8z M-279.3,389.2c-2.7,0-5,2.2-5,5c0,3.5,3.7,8.7,5,10.3
		c1.2-1.6,4.9-6.6,4.9-10.3C-274.3,391.4-276.6,389.2-279.3,389.2z"/>
	<path class="st0" d="M-279.3,397.2c-1.3,0-2.4-1.1-2.4-2.4s1.1-2.4,2.4-2.4s2.4,1.1,2.4,2.4C-276.8,396.1-277.9,397.2-279.3,397.2z
		 M-279.3,393.3c-0.8,0-1.4,0.6-1.4,1.4s0.6,1.4,1.4,1.4s1.4-0.6,1.4-1.4C-277.8,393.9-278.5,393.3-279.3,393.3z"/>
</g>
</svg>
