<?xml version="1.0" encoding="utf-8"?>
<!-- Generator: Adobe Illustrator 19.0.0, SVG Export Plug-In . SVG Version: 6.00 Build 0)  -->
<svg version="1.1" id="Layer_1" xmlns="http://www.w3.org/2000/svg" xmlns:xlink="http://www.w3.org/1999/xlink" x="0px" y="0px"
	 viewBox="0 0 278.8 75.8" style="enable-background:new 0 0 278.8 75.8;" xml:space="preserve">
<style type="text/css">
	.st0{fill:#F55C51;}
	.st1{fill:#FFA86A;}
	.st2{opacity:0.83;}
	.st3{fill:#FFFFFF;}
</style>
<g id="Logo_3_1_">
	<g id="Hearts_1_">
		<path class="st0" d="M75.5,25.5C75.5,25.5,75.5,25.4,75.5,25.5c0-0.3,0-0.5,0-0.7c0-0.1,0-0.1,0-0.2v-0.1v-0.1
			c0-0.4-0.1-0.7-0.1-1.1c0-0.3-0.1-0.5-0.1-0.8c0-0.1,0-0.3-0.1-0.4c0-0.1,0-0.3-0.1-0.4c-0.1-0.6-0.2-1.3-0.4-1.9v-0.1
			c0-0.1,0-0.2-0.1-0.3c0-0.1-0.1-0.2-0.1-0.4c0-0.1-0.1-0.3-0.1-0.4c-0.1-0.2-0.1-0.5-0.2-0.7l0,0c-0.1-0.2-0.2-0.5-0.3-0.7
			c-0.1-0.2-0.2-0.4-0.3-0.7c0,0,0,0,0-0.1c-0.1-0.2-0.2-0.4-0.3-0.7c0,0-0.1-0.2-0.1-0.3c-0.1-0.1-0.1-0.3-0.2-0.4
			c-0.1-0.1-0.1-0.2-0.2-0.4l-0.2-0.4c-0.1-0.1-0.1-0.2-0.2-0.4c-0.1-0.1-0.1-0.2-0.2-0.4c-0.1,0-0.1,0-0.2,0
			c-2.7,0.8-5.2,2.3-7.1,4.3l-0.1,0.1c0.1,0.1,0.2,0.3,0.4,0.5c0,0.1,0.1,0.1,0.1,0.2c0.1,0.1,0.2,0.3,0.3,0.4l0.1,0.1
			c0.1,0.2,0.2,0.3,0.4,0.5l0,0c0.1,0.2,0.3,0.4,0.4,0.6c1.5,2.4,2.4,5.1,2.7,7.9c0.4,5.7-0.7,11.4-3,16.6c-0.7,1.6-1.4,3.3-2.3,4.9
			c-1,1.9-1.7,3.3-2.9,5.1c-0.9,1.5-1.9,3-3,4.4c-1.1,1.5-2.2,3-3.4,4.5v0.1c-1.4,1.7-2.8,2.7-4.1,2.8c-0.3,0-7.6-2-8-2.1
			c-8.8-2.7-15.4-6-20.8-10.2c-3.6-2.6-6.4-6.1-8.2-10.1c-3.2-7.3-1-15.8,5.1-20.1c2.8-2,6.2-3,9.6-3c1.3,0,2.6,0.1,3.9,0.3
			c1.3,0.2,2.6,0.5,3.8,0.9c0.2,0.1,0.4,0.1,0.6,0.1c0.4,0,0.8-0.3,1-0.7c1.7-2.5,3.8-4.6,6.2-6.3c2.7-1.9,6-3,9.3-3
			c1.4,0,2.8,0.2,4.2,0.6l0.1-0.1c1.9-2.8,4.3-5.2,7.3-7l0.1-0.1c-1.5-0.9-3.1-1.6-4.8-2.1s-3.4-0.7-5.2-0.7c-2.8,0-5.5,0.6-8,1.7
			C42.5,6.3,39,9.4,35.5,14c-0.8,1.1-1,1.4-1.5,1.4s-1-0.2-1.4-0.3l0,0c-2.9-0.9-5.8-1.3-8.8-1.3c-2.2,0-4.4,0.3-6.5,0.9
			C6.7,18,1,28.9,4,40.3c1.2,4.7,3.9,8.8,8.3,13c4.6,4.2,9.9,7.7,15.6,10.3c0.1,0.1,14.9,7.3,24.1,7.8h0.1c2.2,0,5-3.6,7.3-6.4
			c0.2-0.3,0.4-0.5,0.6-0.8c0.1-0.2,0.2-0.3,0.3-0.4c0.2-0.2,0.3-0.4,0.4-0.6c0.8-1.3,1.6-2.5,2.4-3.7c0-0.1,0.1-0.1,0.1-0.2
			l0.1-0.1c1.2-1.9,1.8-2.8,3-4.7c0.7-1.2,1.4-2.3,2.1-3.5c4.7-8.5,6.9-15.9,7.2-23.4C75.5,26.8,75.5,26.1,75.5,25.5z"/>
		<path class="st1" d="M111.7,17.5c-2.4-0.8-5-1.2-7.5-1.1c-2.4,0-4.7,0.3-7.1,0.8c-0.5,0.1-1,0.2-1.4,0.2c-0.7,0-0.9-0.4-1.6-1.5
			C91.2,11.4,87.8,7.6,83,5.3c-5.7-2.7-12.3-2.5-17.8,0.6c0,0-0.1,0.1-0.2,0.1l-0.1,0.1c-2.9,1.7-5.4,4.1-7.2,6.9l-0.1,0.1l-0.1,0.1
			c-0.4,0.7-0.9,1.4-1.2,2.1c-2.4,4.8-2.9,9.9-2.4,15.2c0.6,6.2,2.2,12.3,4.8,18c0,0.1,1,2.5,2.6,5.8c0.9-1.5,1.8-3.1,2.6-4.6
			c-1.7-3.9-3-7.9-3.8-12.1c-0.9-4.3-0.7-8.8,0.6-13.1c0.8-2.5,2.2-4.7,4-6.6l0.1-0.1l0.1-0.1c2-2,4.5-3.5,7.2-4.3
			c0.1,0,0.1,0,0.1,0c0.1,0,0.1,0,0.2,0c1.3-0.4,2.7-0.5,4-0.5c0.6,0,1.2,0,1.7,0.1c5,0.6,8.8,3.2,11.9,7.1c0.8,1,1.6,2.1,2.2,3.2
			c0.3,0.5,0.5,0.6,0.9,0.6c0.2,0,0.3,0,0.5-0.1c2-0.5,4.1-0.7,6.1-0.8c0.9,0,1.9,0.1,2.8,0.2c9.7,1.2,15.6,9.4,13.8,19
			c-0.5,2.8-1.6,5.5-3.3,7.7c-3.5,4.5-8.1,8.1-13.3,10.4c-6.7,3.1-13.9,5.3-21.2,6.4c-0.6,0.1-1.3,0.2-2,0.2
			c-1.1,0.1-2.2-0.2-3.1-0.9c-0.2-0.2-4.4-6.7-4.5-6.9c-1-1.4-1.9-2.9-2.7-4.4c-0.9,1.4-1.8,2.8-2.7,4.2c2.2,4.1,5,8.6,7.8,11.4
			c0.9,0.7,2.1,1,3.2,0.8c2.5-0.1,4.9-0.4,7.4-1c0.5-0.1,0.8-0.2,1.1-0.3c4.6-1.3,9.3-2.5,13.9-4.1c7.8-2.8,15.1-6.6,20.9-12.7
			c4-4,6.5-9.2,7.1-14.8C126,28.7,120.7,20.4,111.7,17.5z"/>
		<g id="orange_blick_4_" class="st2">
			<path class="st3" d="M68.9,8.9C68.9,8.9,68.8,8.9,68.9,8.9C68.8,9,68.7,9,68.7,9.1c-2.8,1.3-5.4,3.2-7.5,5.5l-0.1,0.1L61,14.8
				c-1.3,1.5-2.4,3.1-3.3,4.8c0.4-1.9,1-3.8,2-5.6c0,0,0-0.1,0.1-0.1c0,0,0-0.1,0.1-0.1c1.6-2.9,4.2-5.1,7.4-6.1
				c0.1,0,0.1,0,0.2-0.1c0.1,0,0.1,0,0.2-0.1c2.6-0.7,5.3-0.8,8-0.3C73.1,7.4,70.9,8,68.9,8.9z"/>
			<path class="st3" d="M57.3,20.4l0.2-0.8c0.4-2,1-3.8,2-5.6c0,0,0-0.1,0.1-0.1c0,0,0-0.1,0.1-0.1c1.6-2.9,4.3-5.2,7.5-6.2
				c0.1,0,0.1,0,0.2-0.1h0.1l0,0c2.6-0.7,5.4-0.8,8-0.3l0.6,0.1l-0.6,0.1c-2.2,0.2-4.4,0.8-6.5,1.7h-0.1h-0.1h-0.1h-0.1
				c-2.8,1.3-5.4,3.2-7.4,5.5l-0.1,0.1l0,0L61,14.8c-1.3,1.4-2.4,3.1-3.3,4.8L57.3,20.4z M72,7c-1.6,0-3.1,0.2-4.6,0.6l0,0h-0.1
				c-0.1,0.1-0.2,0.1-0.2,0.1c-3.1,1-5.8,3.2-7.3,6.1c0,0.1-0.1,0.1-0.1,0.1s0,0.1-0.1,0.1c-0.8,1.5-1.4,3.2-1.8,4.8
				c0.8-1.5,1.9-2.9,3-4.2l0.1-0.1l0.1-0.1c2.1-2.3,4.7-4.2,7.5-5.5h0.1h0.1h0.1h0.1c1.9-0.8,3.9-1.4,5.9-1.6C73.8,7,72.9,7,72,7z"
				/>
		</g>
		<g id="red_blick_4_" class="st2">
			<path class="st3" d="M7.9,42.5c-8.2-14,5-21.1,5-21.1C4.5,30.7,7.8,42.2,7.9,42.5z"/>
			<path class="st3" d="M8.3,43.3l-0.4-0.7c-2.5-4.4-3.3-8.5-2.2-12.3c1.7-5.9,7.2-8.9,7.3-9l0.5-0.3l-0.4,0.4
				c-8.4,9.2-5.2,20.5-5,21L8.3,43.3z M12.5,21.9c-3.1,2-5.5,5-6.6,8.5c-1,3.6-0.4,7.4,1.8,11.5C7.1,39.2,5.6,29.8,12.5,21.9z"/>
		</g>
	</g>
</g>
<g>
	<path class="st0" d="M218.3,27.7c0,1.6-0.2,2.5-0.5,2.5c-0.2,0-0.2-0.1-0.2-0.2c0-0.2,0-0.6,0.1-1c0.1-0.5,0.1-0.8,0.1-1.1
		c0-2.7-1-4.9-2.9-6.6c-1.9-1.7-4.4-2.6-7.3-2.6c-5.9,0-11.8,3.8-17.8,11.5c-1.9,2.4-5.5,8.1-10.9,17.2c-1.6,2.6-3.2,5-4.8,7
		s-2.7,3.1-3.3,3.1c-0.3,0-0.5-0.1-0.5-0.4c0-0.4,0.4-0.8,1.3-1.2c1.7-0.8,2.6-2.8,2.6-6c0-0.6,0-1.6-0.1-3c-0.2-3.5-0.3-6.5-0.3-9
		c0-4.2,0.4-7.7,1.2-10.4c0.8-2.7,2.2-5.1,4.1-7.2c0-0.1,0.1-0.1,0.1-0.2c-0.6-0.1-1.9,1.2-4,3.7c-1.1,1.3-2.1,2.7-2.9,4.2
		c-0.9,1.4-3.1,5.5-6.8,12.1c-3.1,5.6-6.8,10-10.9,13.1c-4.2,3.1-8.5,4.6-13,4.6c-2.5,0-4.6-0.6-6.3-1.7s-2.5-2.6-2.5-4.4
		c0-1,0.3-1.9,0.9-2.6s1.3-1,2.2-1c1.3,0,1.9,0.6,1.9,1.9c0,0.6-0.2,1.2-0.6,1.7c-0.4,0.5-0.9,0.7-1.5,0.7c-1,0-1.4-0.5-1.4-1.6
		c0-0.4-0.1-0.6-0.2-0.6c-0.3,0-0.5,0.5-0.5,1.6c0,1.6,0.8,2.9,2.3,3.9c1.5,1,3.5,1.5,5.9,1.5c4.5,0,8.7-1.7,12.6-5.1
		c3.9-3.4,8.3-9.3,13.3-17.8c4.1-6.9,7.4-11.4,9.8-13.5c1.7-1.5,2.8-2.2,3.2-2.2c0.1,0,0.1,0.1,0.1,0.1c0,0-0.1,0.2-0.4,0.5
		c-1.2,1.7-2,3.4-2.3,5.3s-0.5,5.9-0.7,11.9c-0.2,7.4-1.1,12.8-2.8,16c0,0-0.1,0-0.1,0.1l0.1,0.1c0.4,0,3.3-4.9,8.9-14.7
		c4.1-7.2,8-12.4,11.8-15.5s7.9-4.8,12.2-4.8c3.1,0,5.7,1,7.7,2.9C217.2,22.4,218.3,24.8,218.3,27.7z M171.3,25.7
		c0,0.4-0.6,1.3-1.7,2.5c-1.7,1.9-3.3,2.8-4.9,2.8c-1.1,0-2-0.4-2.7-1.2s-1.1-1.8-1.1-2.9c0-1.1,0.4-2.5,1.2-4c1-2,1.5-3.3,1.5-4.1
		c0-1-0.5-1.8-1.4-2.4c-0.9-0.6-2.2-0.9-3.7-0.9c-4.4,0-8.4,1.8-12.3,5.3s-5.7,7.3-5.7,11.2c0,2.1,0.6,3.7,1.9,5s2.9,1.9,4.9,1.9
		c1.8,0,3.5-0.5,5.4-1.5c1.8-1,3.3-2.3,4.4-3.9c0.1-0.1,0.1-0.1,0.2-0.1c0.1,0,0.2,0.1,0.2,0.3c0,0.4-0.6,1.1-1.9,2.3
		c-2.6,2.3-5.4,3.5-8.4,3.5c-2.1,0-3.8-0.7-5.2-2.1c-1.3-1.4-2-3.1-2-5.3c0-4.2,2-8.1,5.9-11.7c3.9-3.6,8.2-5.3,12.8-5.3
		c1.9,0,3.4,0.5,4.5,1.4c1.1,1,1.6,2.3,1.6,4c0,1.3-0.6,3.2-1.9,5.7c-0.4,0.9-0.6,1.6-0.6,2.1c0,1.5,0.8,2.2,2.4,2.2
		c1,0,2-0.5,3.2-1.4s2.1-2,2.9-3.4c0.1-0.2,0.2-0.3,0.3-0.3C171.3,25.4,171.3,25.5,171.3,25.7z"/>
	<path class="st0" d="M204,47.4c0,0.5-1.4,2.3-4.3,5.7c-2.3,2.8-4.2,4.2-5.6,4.2c-0.9,0-1.6-0.3-2.2-1c-0.6-0.7-0.9-1.5-0.9-2.5
		c0-0.8,0.4-1.8,1.1-3.2l-0.6,0.8c-1.8,2.3-3.1,3.8-4,4.6c-0.9,0.9-1.8,1.3-2.6,1.3c-0.9,0-1.6-0.3-2.2-1s-0.9-1.5-0.9-2.5
		c0-1.1,0.4-2.4,1.3-3.9l5.3-9c0.7,0.1,1.2,0.2,1.6,0.2s1-0.1,2-0.2l-7,11.5c-0.7,1.2-1.1,2.2-1.1,3.1c0,0.9,0.4,1.3,1.1,1.3
		c2,0,5.1-3.7,9.5-11l2.9-4.9c0.6,0.1,1.1,0.2,1.5,0.2c0.5,0,1.2-0.1,2.1-0.2l-4.7,7.6c-2.2,3.6-3.3,6-3.3,7c0,0.8,0.4,1.3,1.2,1.3
		c1.6,0,4.1-2.5,7.6-7.4l0.9-1.3l0.5-0.6c0.1-0.2,0.2-0.3,0.3-0.3C204,47.2,204,47.3,204,47.4z"/>
	<path class="st0" d="M218,45.4c0,3.2-2,6.1-5.9,8.7c-3.2,2.1-5.7,3.2-7.6,3.2c-1.3,0-1.9-0.6-1.9-1.8c0-0.4,0.1-0.8,0.3-1.4
		l-11.2,18.7c-0.7-0.2-1.2-0.2-1.7-0.2c-0.6,0-1.3,0.1-1.9,0.4l24.1-39.6c0.5,0.2,1,0.3,1.6,0.3c0.5,0,1.2-0.1,1.9-0.3l-8.7,14.1
		c2.1-2.8,3.6-4.6,4.6-5.4s1.9-1.3,2.8-1.3c1,0,1.9,0.4,2.6,1.3S218,44,218,45.4z M215.8,43c0-1.3-0.6-1.9-1.7-1.9
		c-1.4,0-3.8,2.3-7.2,6.9c-2.6,3.6-3.9,6-3.9,7.3c0,1,0.5,1.5,1.4,1.5c1.8,0,4.1-1.8,7-5.3S215.8,45.2,215.8,43z"/>
	<path class="st0" d="M230.7,40.7l-0.2,0.4h-3.8l-6.5,11.2c-0.8,1.3-1.2,2.4-1.2,3.2c0,0.9,0.5,1.3,1.4,1.3c1.8,0,4.8-3.1,9-9.3
		c0.1-0.2,0.3-0.3,0.4-0.3c0.1,0,0.2,0.1,0.2,0.2c0,0.1-0.1,0.2-0.3,0.5l-1.3,1.7c-3.7,5.1-6.4,7.7-8.3,7.7c-0.9,0-1.7-0.3-2.3-1
		s-0.9-1.5-0.9-2.5c0-1.2,0.5-2.6,1.6-4.4l4.9-8.3h-3l0.3-0.4h2.9l3.4-5.7c0.6,0.2,1.1,0.2,1.7,0.2c0.5,0,1.1-0.1,1.7-0.2l-3.4,5.7
		H230.7z"/>
	<path class="st0" d="M239.9,47.4c0,0.1-0.1,0.2-0.3,0.5l-1.3,1.7c-3.7,5.1-6.5,7.7-8.4,7.7c-0.9,0-1.7-0.3-2.3-1s-0.9-1.5-0.9-2.4
		c0-1.1,0.7-2.9,2-5.2l4.6-7.8c0.6,0.1,1.1,0.2,1.4,0.2c0.5,0,1.3-0.1,2.2-0.2l-6.7,10.9c-1,1.6-1.4,2.8-1.4,3.7
		c0,0.9,0.5,1.3,1.4,1.3c1.7,0,4.8-3.1,9.2-9.3c0.1-0.2,0.2-0.3,0.3-0.3C239.8,47.2,239.9,47.3,239.9,47.4z M239.4,35.3
		c0,0.7-0.3,1.3-0.9,1.9c-0.6,0.6-1.2,0.9-1.9,0.9c-0.9,0-1.3-0.4-1.3-1.3c0-0.6,0.3-1.3,0.9-1.9c0.6-0.6,1.2-0.9,1.9-0.9
		C239,34,239.4,34.5,239.4,35.3z"/>
	<path class="st0" d="M260.5,47.4c0,0.4-1.4,2.3-4.3,5.7c-2.3,2.8-4.1,4.2-5.5,4.2c-0.9,0-1.6-0.3-2.2-1c-0.6-0.7-0.9-1.5-0.9-2.5
		c0-1.1,0.3-2.2,0.9-3.4c-2,2.7-3.4,4.6-4.5,5.5s-2,1.4-3,1.4c-1,0-1.9-0.4-2.6-1.3s-1.1-2-1.1-3.4c0-3.8,2.6-7.1,7.9-10
		c2.3-1.3,4.2-1.9,5.6-1.9c1.2,0,1.8,0.6,1.8,1.8c0,0.3-0.1,0.8-0.2,1.3l1.5-2.8c0.6,0.1,1.1,0.2,1.6,0.2c0.5,0,1.2-0.1,2.1-0.2
		l-5.2,8.6c-1.8,3-2.7,5-2.7,5.9c0,0.9,0.4,1.4,1.1,1.4c0.8,0,2-0.9,3.8-2.7c1.7-1.8,3.5-4,5.3-6.6c0.1-0.2,0.2-0.3,0.3-0.3
		C260.5,47.2,260.5,47.3,260.5,47.4z M252.5,42.6c0-1-0.4-1.4-1.3-1.4c-1.8,0-4.2,1.8-7.1,5.3s-4.4,6.4-4.4,8.5
		c0,1.3,0.6,1.9,1.7,1.9c1.3,0,3.7-2.2,7-6.7C251.1,46.4,252.5,43.9,252.5,42.6z"/>
	<path class="st0" d="M275.9,26.6c-8.2,13.7-13,21.7-14.3,24.1s-2,4-2,4.8c0,0.9,0.4,1.3,1.1,1.3c1.6,0,4.7-3.1,9-9.3
		c0.1-0.2,0.2-0.3,0.4-0.3c0.1,0,0.1,0.1,0.1,0.2c0,0.1-0.1,0.3-0.3,0.5l-1.3,1.7c-3.7,5.1-6.4,7.7-8.2,7.7c-0.8,0-1.5-0.3-2.1-1
		c-0.5-0.6-0.8-1.4-0.8-2.4c0-1.1,0.2-2.1,0.7-3.1s2.2-3.9,5.1-8.7c3.5-5.9,6.5-11,8.9-15.3c0.6,0.2,1.1,0.2,1.6,0.2
		C274.6,27,275.3,26.9,275.9,26.6z"/>
</g>
</svg>
